<svg id="Layer_1" data-name="Layer 1" xmlns="http://www.w3.org/2000/svg" viewBox="0 0 1080 1080"><defs><style>.cls-1{fill:#fff;}</style></defs><path class="cls-1" d="M550.6,313.48C553,471.85,554.42,645.79,555.31,804l.33,69.84-9.39-2.53c32-55.59,78.29-103,133.62-135.58a379.84,379.84,0,0,1,183.19-52.49L857.42,689l.15-133.69c.21-122.42.86-278.17,1.69-401.08l4.22,3.94a449,449,0,0,0-120.11,24.36,454.73,454.73,0,0,0-192.77,131Zm0,0c76-94.14,191.71-154.17,312.33-163.18l4.2-.33C868.26,321.35,869,517.72,869,689v5.64l-5.65.15c-109.28,2.18-216,55.68-282.23,142.8A370.9,370.9,0,0,0,555,876.34l-9.48,16.16c-.07-10.79.45-76.41.42-88.93.85-158.08,2.37-331.86,4.7-490.09Z"/><path class="cls-1" d="M863.21,215.18c15.53-3.36,47-10.11,62.62-13.36l1.84-.39,0,2C931,362.7,932,527.48,931.87,686.79c.11,2.85-.24,76.28-.16,76.49-67.79-21-141.69-22.47-209.64-1.13C656,782.5,596.89,822.52,550.6,873.81a377.2,377.2,0,0,1,75.81-71.49,357.3,357.3,0,0,1,93.2-47.8C786.42,732,860,731.07,927.67,750.46l-7.16,5.39c0-23.25-.18-81.21-.19-103.59.14-147.58,1.11-301.3,4.21-448.87l1.88,1.56c-15.77,2.78-47.42,7.63-63.2,10.23Z"/><path class="cls-1" d="M550.6,873.81c85.18-48.33,182-75.63,279.76-79.9a641.55,641.55,0,0,1,175.48,16.77l-7,5.58c-1.34-69.67-2.68-147.06-3.63-217.14-1.15-91.87-2.09-197.62-2.27-289.56l0-72.4,2,1.56-34.43,7-34.47,6.88L960.2,244l34.11-8.47,1.91-.47.07,2c6.87,191.12,11.12,387.86,13.87,579l.11,7.27-7.06-1.7c-151.78-37.18-313.09-18-452.61,52.17Z"/><path class="cls-1" d="M540.43,310.9c1.68,106,2.92,243.43,3.83,349.7.37,74.5,1.18,155.06,1.26,229.29C538.75,878.4,531,864.76,523.6,854c-66.31-99.74-182-161.2-301.56-161.92.08-174.65.65-365.71,1.86-540.4l0-4.25,4.18.33c120.61,9,236.29,69,312.32,163.17Zm0,0A451.71,451.71,0,0,0,227.55,155.57l4.2-3.92c1.21,172.74,1.78,362.07,1.86,534.77L228,680.63c96.35,2.17,191.43,42.58,258.8,111.67a381.87,381.87,0,0,1,58,76.39l-9.41,2.54c.3-67.07.74-142.09,1.22-209.62.84-106.7,2.23-244.27,3.83-350.71Z"/><path class="cls-1" d="M227.83,212.6c-15.74-2.32-47.49-7.73-63.21-10.23l1.89-1.57c3.31,159.83,4.33,323.63,4.15,483.4l-.15,69.06-7.14-5.38c50.82-14.42,104.89-17.84,157-8.78,51.94,8.81,101.49,30.06,144.28,60.64a377.55,377.55,0,0,1,75.82,71.49c-94.44-105.78-236.6-153.47-374-112.58l-7.13,2c-.1-1.5-.08-72.6-.16-76.49-.1-65.85.07-141.41.54-207.17.47-89.91,1.8-188,3.64-278.19,16.56,3.51,48,10.12,64.48,13.76Z"/><path class="cls-1" d="M540.43,871.23C398.33,799.8,234.9,781.5,80.76,820.75c2.77-193.24,7-393,14-586.23l.07-2,1.89.47,34.12,8.46,34.07,8.61-34.46-6.89-34.44-7,2-1.54c.15,36.25-.06,108.6-.21,144.8-.56,104.78-1.93,221-3.64,325.73-.35,24.62-1.51,83.23-2,108.56l-7-5.57a637.43,637.43,0,0,1,116.58-16.57c117.39-6,236.4,21.65,338.66,79.7Z"/></svg>